<?xml version="1.0" standalone="no"?>
<!DOCTYPE svg PUBLIC "-//W3C//DTD SVG 20010904//EN"
 "http://www.w3.org/TR/2001/REC-SVG-20010904/DTD/svg10.dtd">
<svg version="1.0" xmlns="http://www.w3.org/2000/svg"
 width="749.000000pt" height="1280.000000pt" viewBox="0 0 749.000000 1280.000000"
 preserveAspectRatio="xMidYMid meet">
<metadata>
Created by potrace 1.15, written by Peter Selinger 2001-2017
</metadata>
<g transform="translate(0.000000,1280.000000) scale(0.100000,-0.100000)"
fill="#000000" stroke="none">
<path d="M4382 12787 c-17 -20 -269 -518 -277 -547 -4 -14 -24 -43 -46 -65
-21 -22 -45 -56 -53 -75 -8 -19 -28 -48 -45 -64 -17 -17 -31 -37 -31 -46 0 -9
-14 -29 -31 -46 -17 -16 -37 -41 -45 -56 -19 -36 -50 -53 -69 -38 -10 9 -13
59 -10 248 1 130 6 253 9 272 11 62 24 347 17 381 -9 45 -31 50 -31 7 0 -47
-20 -115 -75 -253 -56 -145 -264 -588 -310 -665 -19 -30 -74 -95 -122 -143
l-89 -88 -88 -16 c-76 -14 -94 -21 -138 -57 -27 -23 -67 -55 -89 -72 -26 -22
-62 -37 -110 -48 -39 -9 -110 -31 -157 -50 -95 -38 -166 -58 -294 -82 -45 -8
-105 -22 -133 -30 -27 -8 -106 -21 -175 -29 -69 -8 -135 -17 -147 -20 -37 -8
-29 -53 21 -129 24 -37 49 -86 55 -111 6 -24 21 -56 34 -72 13 -15 33 -49 45
-74 15 -31 35 -52 61 -67 66 -37 478 -122 593 -122 47 0 134 -36 159 -66 32
-37 44 -96 43 -214 -1 -137 -19 -220 -73 -335 -40 -86 -46 -92 -208 -209 -75
-55 -108 -110 -99 -165 4 -20 11 -223 16 -451 11 -480 24 -779 41 -935 6 -60
9 -153 6 -205 -5 -85 -12 -113 -68 -260 -126 -339 -130 -354 -140 -550 -11
-204 -34 -386 -60 -479 -45 -159 -135 -283 -263 -360 -50 -30 -69 -35 -183
-47 -71 -7 -150 -14 -178 -14 -27 0 -61 -6 -75 -13 -34 -17 -141 -172 -195
-282 -39 -79 -45 -102 -54 -195 -6 -58 -10 -123 -10 -146 1 -23 -8 -58 -20
-83 l-22 -43 23 -46 c19 -39 28 -48 54 -50 21 -2 41 5 60 20 16 13 41 31 56
41 15 9 35 33 44 53 10 21 107 125 218 235 l201 199 90 -1 c153 -2 153 -2 43
-96 -156 -135 -183 -172 -162 -227 11 -29 56 -17 188 53 72 38 155 76 185 85
29 8 73 27 98 40 24 14 61 28 81 32 90 15 125 79 142 254 7 63 21 140 32 170
43 119 67 200 83 281 18 93 69 263 150 499 30 85 65 194 80 242 34 115 186
415 226 447 16 13 32 22 34 19 27 -26 46 -541 25 -693 -6 -49 -15 -133 -20
-185 -4 -52 -12 -113 -18 -135 -6 -22 -16 -143 -22 -270 -10 -234 -25 -358
-79 -680 -40 -234 -58 -435 -71 -785 -6 -157 -17 -352 -25 -435 -8 -82 -20
-215 -25 -295 -6 -80 -17 -186 -25 -235 -32 -204 -35 -270 -25 -538 6 -144 18
-298 26 -342 21 -113 29 -558 15 -765 -6 -91 -16 -230 -21 -310 -5 -80 -17
-197 -25 -260 -8 -63 -19 -167 -24 -230 -10 -124 -35 -324 -52 -405 -5 -27
-14 -79 -20 -114 -6 -36 -21 -92 -35 -125 -14 -34 -34 -110 -46 -169 l-21
-108 -57 -52 c-78 -73 -142 -113 -208 -133 -31 -9 -86 -29 -122 -46 -36 -17
-119 -52 -185 -79 -65 -27 -149 -67 -185 -89 -126 -76 -39 -70 -1045 -70
l-905 0 0 -140 0 -140 3745 0 3745 0 0 140 0 140 -857 0 -857 0 -22 113 c-13
63 -39 155 -58 205 -39 102 -52 169 -61 317 -3 54 -19 169 -36 255 -21 104
-29 171 -26 205 3 28 2 309 -3 625 -8 649 -8 644 -89 763 -24 35 -44 79 -51
113 -7 30 -22 79 -35 107 -13 29 -33 107 -44 177 -11 69 -27 157 -36 195 -25
110 -31 453 -11 588 9 59 16 138 16 176 0 37 7 112 15 167 8 54 15 129 15 165
0 36 9 137 19 225 11 87 22 197 26 244 3 47 13 126 21 175 8 50 17 182 20 295
l5 205 39 40 c72 73 42 71 -32 -1 -119 -116 -248 -212 -248 -184 0 5 5 10 12
10 34 0 338 269 338 300 0 6 9 28 20 49 10 21 23 65 29 98 5 33 23 95 40 139
18 43 36 115 42 158 5 44 25 121 44 170 18 50 39 114 46 141 6 28 18 57 25 66
8 9 12 18 8 21 -10 11 17 131 56 253 53 163 94 332 125 510 59 338 104 512
162 629 29 56 53 131 53 163 0 12 -48 116 -106 232 -58 116 -107 227 -110 246
-2 20 -15 57 -28 83 -43 83 -123 265 -141 322 -10 30 -17 71 -16 90 1 19 -3
134 -9 255 -11 202 -16 238 -61 445 -64 296 -206 731 -245 753 -8 5 -30 39
-49 77 -19 38 -41 72 -48 77 -7 4 -24 27 -38 50 -48 83 -266 351 -369 453
-156 156 -301 268 -478 368 -32 18 -78 51 -102 73 l-43 40 7 212 c3 117 13
245 21 286 18 92 33 581 18 581 -6 0 -15 -6 -21 -13z m-731 -1071 c-15 -18
-212 -65 -295 -71 l-61 -4 50 10 c123 24 281 62 295 70 22 12 24 11 11 -5z
m763 -164 c39 -27 85 -56 101 -65 17 -8 59 -50 95 -93 36 -43 144 -160 241
-260 98 -100 183 -192 189 -205 7 -13 -18 10 -56 51 -37 41 -118 125 -179 185
-61 61 -124 128 -140 150 -43 59 -126 144 -159 162 -15 8 -59 37 -97 64 -38
27 -75 49 -82 49 -7 0 -22 7 -33 15 -17 13 -16 14 15 5 18 -5 66 -31 105 -58z
m23 -160 c88 -103 79 -98 -44 28 -68 69 -123 126 -123 128 0 10 125 -108 167
-156z m-137 -64 c0 -6 -7 -5 -15 2 -8 7 -15 17 -15 22 0 6 7 5 15 -2 8 -7 15
-17 15 -22z m148 -208 c86 -112 139 -190 129 -190 -3 0 -16 17 -28 37 -25 40
-125 174 -196 261 -24 29 -43 56 -43 60 0 9 32 -30 138 -168z m198 -2 c63 -84
110 -156 91 -138 -4 5 -144 188 -177 234 -11 14 -11 18 -2 12 8 -5 47 -53 88
-108z m-394 -5 c54 -82 60 -93 55 -93 -4 0 -18 20 -71 103 -10 15 -16 27 -13
27 2 0 15 -17 29 -37z m-87 -197 l17 -31 -20 24 c-11 14 -27 38 -37 55 l-17
31 20 -24 c11 -14 27 -38 37 -55z m600 24 c9 -16 13 -30 11 -30 -3 0 -12 14
-21 30 -9 17 -13 30 -11 30 3 0 12 -13 21 -30z m-160 -50 c9 -16 13 -30 11
-30 -3 0 -12 14 -21 30 -9 17 -13 30 -11 30 3 0 12 -13 21 -30z m228 -52 c47
-67 112 -178 104 -178 -3 0 -20 26 -37 58 -18 31 -53 85 -77 120 -25 34 -42
62 -39 62 3 0 25 -28 49 -62z m311 -50 c16 -28 13 -27 -20 11 -56 64 -73 91
-33 54 19 -18 43 -47 53 -65z m-2949 2 c3 -5 1 -10 -4 -10 -6 0 -11 5 -11 10
0 6 2 10 4 10 3 0 8 -4 11 -10z m3000 -82 c16 -24 22 -38 14 -31 -15 12 -53
73 -46 73 2 0 17 -19 32 -42z m50 -78 c9 -16 13 -30 11 -30 -3 0 -12 14 -21
30 -9 17 -13 30 -11 30 3 0 12 -13 21 -30z m-876 -592 c28 -2 46 -7 42 -11
-12 -12 -134 6 -139 21 -3 9 2 10 22 2 14 -5 48 -11 75 -12z m186 -14 c44 -4
87 -7 95 -5 11 2 12 0 4 -9 -16 -17 -191 7 -199 28 -4 11 -2 12 7 4 7 -5 49
-14 93 -18z m367 -52 c25 2 44 0 41 -4 -8 -14 -113 -9 -177 8 -94 24 -89 35 6
12 45 -10 104 -18 130 -16z m140 -56 c63 -23 156 -45 162 -38 3 3 6 0 6 -7 0
-16 -40 -10 -136 20 -60 19 -105 54 -104 83 1 6 7 -1 15 -16 9 -16 32 -32 57
-42z m351 -133 c47 -26 134 -116 167 -174 30 -54 20 -49 -18 9 -41 63 -108
130 -157 154 -46 24 -122 86 -130 106 -3 8 18 -6 46 -30 28 -23 69 -53 92 -65z
m-568 7 c-9 -16 -18 -30 -21 -30 -2 0 2 14 11 30 9 17 18 30 21 30 2 0 -2 -13
-11 -30z m-296 -22 c-55 -80 -92 -117 -131 -133 -57 -23 -58 -12 -1 16 32 16
65 45 98 87 53 67 70 82 34 30z m472 -45 c-11 -21 -20 -35 -21 -31 0 12 33 78
38 74 2 -2 -6 -21 -17 -43z m-218 -5 c-41 -74 -349 -355 -369 -336 -2 3 24 25
58 49 74 51 254 223 293 280 34 47 43 51 18 7z m273 -37 c-15 -28 -28 -51 -31
-51 -3 0 7 25 22 55 15 30 29 53 31 51 2 -2 -8 -27 -22 -55z m-1554 24 c51
-14 128 -28 171 -32 42 -3 77 -10 77 -15 0 -21 -285 31 -337 61 -27 16 -13 13
89 -14z m1453 -75 c-14 -27 -28 -50 -30 -50 -3 0 6 23 20 50 14 28 28 50 30
50 3 0 -6 -22 -20 -50z m55 -30 c-6 -11 -13 -20 -16 -20 -2 0 0 9 6 20 6 11
13 20 16 20 2 0 0 -9 -6 -20z m-29 -47 c-17 -29 -51 -69 -51 -60 0 9 50 77 57
77 2 0 -1 -8 -6 -17z m-81 -23 c-6 -11 -13 -20 -16 -20 -2 0 0 9 6 20 6 11 13
20 16 20 2 0 0 -9 -6 -20z m-1430 -21 c36 -5 111 -11 166 -12 57 -1 100 -6 96
-11 -6 -10 -231 0 -300 13 -24 5 -49 14 -55 21 -10 10 -8 11 8 6 11 -4 49 -12
85 -17z m1404 -21 c-84 -139 -284 -375 -370 -436 -27 -18 -34 -20 -43 -8 -10
12 -8 13 9 9 31 -8 235 202 329 340 41 59 75 107 78 107 2 0 1 -6 -3 -12z
m151 -28 c15 -6 26 -13 23 -15 -8 -8 -68 16 -68 27 0 5 4 7 9 4 4 -3 21 -10
36 -16z m-24 -121 c-28 -23 -64 -25 -81 -3 -12 13 -10 14 14 3 23 -11 30 -10
54 8 34 26 46 18 13 -8z m-1387 -109 l151 -8 -160 3 c-126 2 -169 6 -202 20
-61 26 -53 37 9 13 37 -14 93 -22 202 -28z m1157 -129 c-17 -34 -33 -61 -36
-61 -3 0 10 29 27 65 18 35 34 63 36 61 2 -2 -11 -31 -27 -65z m426 -135 c26
-17 53 -42 62 -56 13 -20 10 -19 -15 6 -16 17 -53 43 -82 58 -44 22 -60 26
-101 20 -29 -4 -51 -2 -55 4 -3 6 1 8 11 6 10 -2 32 0 48 4 37 11 71 0 132
-42z m534 15 c-15 -27 -51 -48 -127 -71 -38 -12 -91 -31 -119 -42 -54 -22
-186 -31 -204 -13 -7 7 19 10 77 10 66 0 100 5 142 22 30 12 81 29 113 39 33
9 73 29 90 45 38 34 41 35 28 10z m-1031 -11 c-6 -11 -19 -24 -30 -30 -21 -11
-179 -13 -197 -2 -6 4 36 7 94 7 98 0 107 2 120 23 19 27 28 29 13 2z m-1248
-11 c47 -11 136 -23 206 -26 68 -3 119 -9 115 -13 -21 -19 -354 23 -403 51
-23 13 -9 11 82 -12z m-827 -43 c33 -8 63 -12 67 -10 5 3 8 0 8 -7 0 -7 -11
-9 -32 -5 -18 3 -61 9 -96 12 -34 4 -65 11 -68 15 -8 13 54 10 121 -5z m2405
-11 c-7 -8 -25 -15 -41 -15 -15 0 -50 -8 -76 -19 -53 -21 -136 -35 -292 -52
-100 -10 -105 -9 -123 10 -10 12 -13 16 -6 11 7 -6 33 -10 58 -10 78 0 282 29
350 49 36 11 81 24 100 29 19 6 37 10 39 11 2 1 -2 -6 -9 -14z m179 -22 c12
-10 23 -33 25 -51 2 -18 13 -43 25 -56 11 -12 21 -29 21 -37 0 -9 12 -26 26
-40 25 -23 137 -240 138 -267 1 -7 16 -31 34 -53 38 -44 102 -221 102 -278 0
-20 -6 -70 -14 -111 -8 -41 -22 -129 -30 -195 -9 -66 -27 -174 -40 -240 -14
-66 -30 -167 -36 -225 -6 -59 -20 -122 -30 -145 -11 -22 -24 -73 -31 -114 -7
-49 -25 -102 -54 -160 -23 -47 -50 -108 -59 -136 -19 -58 -51 -115 -66 -115
-19 0 -63 84 -66 127 -2 24 -10 67 -18 95 -8 29 -18 78 -21 108 -10 87 -85
446 -112 540 -13 47 -43 128 -66 180 l-42 95 2 120 c3 237 40 449 125 714 33
105 56 154 100 219 31 46 54 52 87 25z m-1588 -64 c92 -8 122 -8 140 2 22 11
23 11 9 -6 -13 -16 -26 -17 -125 -11 -121 8 -277 37 -282 53 -2 6 28 2 69 -8
40 -10 125 -23 189 -30z m-670 -86 c240 -24 313 -31 344 -32 18 -1 25 -4 18
-9 -7 -4 -119 3 -250 16 -234 23 -295 37 -307 68 -4 9 4 7 23 -7 23 -17 57
-24 172 -36z m2397 -10 c16 -21 34 -49 41 -63 l12 -25 -18 25 c-10 14 -33 42
-52 62 -18 21 -29 38 -23 38 6 0 24 -17 40 -37z m-946 -56 c-6 -7 -41 -23 -77
-36 -49 -18 -69 -21 -78 -12 -8 8 -5 11 14 11 14 0 52 11 84 24 73 30 70 29
57 13z m1023 -68 c9 -17 15 -33 13 -35 -3 -2 -12 12 -21 31 -21 43 -13 47 8 4z
m-1226 5 c-19 -19 -129 -32 -129 -15 0 7 20 11 53 11 28 0 59 5 67 10 22 14
26 12 9 -6z m-314 -20 c22 -3 66 -1 98 4 31 5 57 6 57 2 0 -23 -184 -26 -220
-4 l-25 15 25 -6 c14 -3 43 -9 65 -11z m1976 -31 c-5 -10 -28 -36 -50 -57 -38
-37 -44 -40 -123 -47 -46 -4 -97 -13 -114 -20 -28 -11 -36 -10 -58 4 -14 9
-31 27 -37 39 -10 19 -7 18 15 -6 23 -24 32 -27 64 -22 20 3 80 12 132 19 94
14 95 15 135 61 43 50 51 56 36 29z m-3226 -154 c59 -34 61 -34 215 -39 l155
-6 -152 -2 -152 -2 -64 35 c-35 19 -73 45 -83 58 -19 22 -19 22 1 6 11 -9 47
-31 80 -50z m2935 -99 c6 -11 8 -20 6 -20 -3 0 -10 9 -16 20 -6 11 -8 20 -6
20 3 0 10 -9 16 -20z m-2505 -20 c3 -5 1 -10 -4 -10 -6 0 -11 5 -11 10 0 6 2
10 4 10 3 0 8 -4 11 -10z m1766 -88 c-16 -5 -41 5 -41 17 0 7 10 6 26 -1 15
-7 21 -14 15 -16z m-1641 -202 c8 -5 12 -11 9 -14 -3 -3 -14 1 -25 9 -21 16
-8 20 16 5z m1554 -296 c-43 -48 -94 -104 -112 -125 -18 -21 -43 -41 -55 -45
-12 -4 -41 -24 -64 -45 -22 -20 -58 -46 -80 -57 -21 -11 -71 -40 -111 -65 -81
-50 -135 -73 -267 -112 -49 -14 -111 -37 -138 -51 -26 -13 -58 -24 -71 -24
-14 0 -60 -14 -103 -31 -138 -56 -432 -119 -488 -105 -48 12 -25 21 58 22 99
1 286 41 407 89 47 18 101 36 120 39 19 3 57 17 84 31 27 14 56 25 63 25 37 0
240 77 309 117 44 25 106 61 139 80 33 19 76 49 95 67 19 18 42 36 51 39 10 3
66 59 125 125 60 66 111 118 113 116 2 -2 -32 -43 -75 -90z m127 -152 c-100
-128 -251 -229 -546 -369 -207 -98 -217 -102 -330 -113 -49 -4 -126 -20 -170
-34 -44 -13 -110 -32 -147 -40 -38 -8 -92 -27 -120 -41 -29 -14 -85 -34 -125
-45 -39 -10 -102 -31 -138 -45 -37 -15 -69 -24 -72 -21 -4 3 -4 7 -2 9 13 8
116 43 194 64 50 14 115 38 145 53 30 15 100 38 155 50 55 12 116 29 135 37
19 8 76 19 125 24 129 14 151 22 340 111 298 141 443 236 536 351 24 30 46 53
48 51 2 -2 -11 -21 -28 -42z m63 -197 c-3 -8 -31 -31 -62 -51 -32 -20 -70 -49
-87 -64 -36 -33 -54 -43 -220 -119 -150 -68 -220 -97 -290 -118 -27 -8 -66
-23 -85 -33 -19 -9 -55 -20 -79 -24 -24 -4 -99 -25 -166 -46 -182 -60 -390
-110 -452 -110 -35 0 -81 -10 -131 -29 -117 -43 -172 -59 -172 -51 0 9 43 26
89 35 18 4 58 18 88 31 34 16 82 26 131 30 85 6 289 56 450 110 57 19 123 37
145 41 23 3 74 19 114 35 39 15 75 28 81 28 19 0 280 113 427 186 17 8 53 32
80 54 64 50 139 108 142 109 1 1 0 -6 -3 -14z m50 -238 c-3 -8 -17 -23 -32
-34 -35 -25 -309 -163 -392 -198 -156 -63 -603 -155 -930 -190 -35 -4 -74 -13
-85 -20 -11 -7 -47 -16 -79 -19 -32 -4 -91 -21 -130 -38 -71 -31 -156 -48
-156 -32 0 5 17 10 38 11 20 0 69 15 108 32 39 16 101 35 139 41 37 6 76 15
86 20 9 6 100 21 201 35 468 63 721 128 953 244 77 38 156 76 175 84 19 8 51
29 70 46 41 35 41 35 34 18z m-2541 -16 c83 -22 136 -46 210 -97 27 -19 53
-31 58 -28 5 3 9 0 9 -5 0 -19 -26 -12 -70 20 -66 48 -159 88 -239 103 -40 8
-75 17 -78 20 -12 11 34 6 110 -13z m3315 -12 c39 -12 72 -26 72 -30 0 -12 4
-12 -60 12 -37 14 -92 24 -170 29 l-115 7 100 2 c77 1 117 -4 173 -20z m-2998
-9 c-6 -11 -13 -20 -16 -20 -2 0 0 9 6 20 6 11 13 20 16 20 2 0 0 -9 -6 -20z
m2290 -214 c0 -13 -132 -102 -196 -131 -107 -49 -165 -63 -297 -70 -173 -10
-583 -63 -667 -86 -42 -12 -132 -25 -206 -30 -90 -6 -145 -14 -175 -27 -25
-11 -68 -24 -97 -31 -59 -12 -228 -15 -235 -3 -3 4 45 7 107 8 95 1 124 5 201
31 70 23 116 32 205 37 65 3 147 15 190 27 91 25 577 89 676 89 39 0 97 5 129
11 83 15 248 91 302 139 40 35 63 48 63 36z m555 -97 c33 -6 72 -20 87 -30 30
-22 54 -24 61 -6 4 7 6 8 6 1 1 -6 -6 -17 -14 -24 -11 -9 -20 -8 -43 9 -16 11
-65 28 -108 37 -44 10 -83 21 -89 26 -6 6 0 7 15 4 14 -3 52 -10 85 -17z
m-496 -156 c-33 -39 -78 -48 -259 -50 -96 -1 -249 -6 -340 -12 -309 -18 -614
-25 -607 -14 4 6 137 13 354 17 191 4 370 12 396 18 26 5 125 11 220 11 157 2
175 4 207 24 43 27 46 27 29 6z m-2789 -98 c101 -25 120 -33 155 -67 41 -38
70 -47 93 -28 7 5 4 0 -7 -11 -17 -19 -20 -20 -47 -6 -16 8 -42 29 -58 46 -17
17 -37 31 -46 31 -29 0 -215 51 -225 62 -7 8 -5 9 5 6 8 -3 67 -18 130 -33z
m2327 -109 c43 -27 91 -56 108 -64 39 -21 189 -29 210 -12 10 8 15 9 15 2 0
-42 -147 -40 -233 3 -69 34 -141 77 -164 96 -10 9 -36 26 -59 37 -22 11 -46
28 -54 36 -13 17 46 -16 177 -98z m-393 -106 c139 -103 208 -143 346 -201 99
-42 137 -53 182 -53 31 -1 54 -5 51 -10 -3 -4 -31 -6 -62 -4 -76 6 -278 93
-401 173 -112 73 -278 205 -335 265 -25 27 -9 17 43 -29 46 -39 125 -103 176
-141z m287 -22 c135 -72 258 -118 318 -118 13 0 33 8 44 18 19 16 20 16 8 -5
-6 -13 -19 -23 -29 -24 -83 -5 -200 36 -359 125 -134 75 -223 143 -271 206
-14 19 12 -1 60 -45 69 -64 114 -95 229 -157z m559 212 c-13 -24 -72 -70 -91
-70 -22 0 -175 53 -164 57 6 2 37 -6 70 -17 86 -29 115 -27 155 15 39 40 45
43 30 15z m-1346 -57 c32 -35 57 -63 55 -63 -3 0 -34 30 -69 66 -36 37 -60 65
-55 63 6 -2 37 -32 69 -66z m202 -47 c71 -62 188 -171 259 -241 119 -116 115
-113 -55 42 -145 133 -289 260 -349 310 -2 1 0 3 5 3 6 0 68 -51 140 -114z
m-286 -67 c69 -63 195 -178 280 -254 227 -206 530 -505 637 -630 224 -261 387
-358 631 -372 50 -3 92 -10 92 -14 0 -20 -180 1 -280 32 -146 46 -274 142
-414 309 -112 134 -406 422 -791 773 -181 165 -332 306 -334 311 -4 13 11 0
179 -155z m-56 -178 c-6 -6 -262 248 -276 274 -5 11 55 -45 136 -125 80 -79
143 -146 140 -149z m-76 -60 c122 -119 222 -220 222 -225 0 -6 -78 66 -173
159 -94 94 -225 221 -290 284 -64 63 -117 116 -117 119 0 6 104 -91 358 -337z
m491 82 c263 -249 470 -409 671 -520 52 -29 89 -53 81 -53 -18 0 -122 58 -227
125 -82 53 -306 229 -399 313 -85 78 -305 292 -299 292 4 0 81 -71 173 -157z
m-794 77 l30 -35 -38 34 c-20 19 -37 39 -37 45 0 6 3 6 8 1 4 -6 21 -26 37
-45z m20 -140 c71 -78 200 -247 344 -450 68 -96 136 -190 150 -209 14 -19 52
-69 83 -110 32 -42 58 -80 58 -84 0 -11 -111 138 -283 378 -162 227 -258 353
-347 455 -31 36 -65 79 -74 95 -17 30 -17 30 1 5 10 -14 41 -50 68 -80z m1767
35 c-28 -30 -61 -74 -74 -97 -26 -47 -71 -79 -88 -62 -7 7 -3 10 11 11 26 2
56 29 76 67 14 28 110 136 120 136 3 0 -18 -25 -45 -55z m591 10 c-3 -9 -8
-14 -10 -11 -3 3 -2 9 2 15 9 16 15 13 8 -4z m-1949 -380 c207 -236 320 -371
581 -695 82 -102 183 -223 224 -269 42 -46 107 -120 144 -165 124 -147 300
-327 449 -463 81 -73 145 -133 141 -133 -28 0 -417 380 -556 545 -56 66 -132
151 -168 190 -36 38 -162 189 -279 335 -327 406 -611 738 -804 940 -91 95 -91
95 -12 20 43 -41 169 -178 280 -305z m-1615 319 c47 -9 96 -22 110 -30 l26
-15 -25 6 c-14 4 -43 11 -65 17 -22 5 -96 15 -165 23 -105 10 -130 10 -155 -1
l-30 -14 23 20 c20 17 34 18 110 14 48 -3 125 -12 171 -20z m-614 -14 c3 -5
-1 -10 -10 -10 -9 0 -13 5 -10 10 3 6 8 10 10 10 2 0 7 -4 10 -10z m98 -47
c-21 -21 -44 -47 -51 -58 -7 -11 -5 -5 4 14 18 38 57 81 74 81 6 0 -6 -17 -27
-37z m291 -24 c-32 -29 -116 -111 -186 -183 -70 -72 -128 -126 -128 -120 0 15
347 354 362 354 7 0 -15 -23 -48 -51z m662 32 c-3 -5 -20 -12 -37 -16 -17 -4
-59 -27 -95 -51 -35 -24 -69 -44 -75 -44 -16 0 -71 -30 -117 -66 -24 -18 -73
-43 -110 -55 -37 -12 -84 -30 -104 -40 -40 -20 -58 -24 -58 -11 0 7 9 11 140
56 41 15 104 46 140 71 36 24 80 50 99 56 19 7 59 29 89 50 29 21 67 41 83 44
16 4 32 11 35 16 3 6 8 8 11 5 3 -2 2 -9 -1 -15z m-821 -11 c-28 -12 -37 -12
-30 0 3 6 16 10 28 9 21 0 21 -1 2 -9z m1688 -141 c17 -33 17 -33 0 -9 -10 14
-39 48 -65 77 -27 29 -48 57 -48 61 1 13 94 -94 113 -129z m1167 41 c63 -38
131 -73 150 -76 19 -4 56 -18 82 -30 53 -27 84 -30 91 -11 4 7 6 8 6 1 1 -6
-5 -17 -13 -23 -12 -10 -29 -6 -83 17 -37 17 -82 33 -100 37 -18 3 -48 17 -68
31 -20 13 -53 33 -73 45 -99 55 -136 79 -123 79 8 0 67 -31 131 -70z m-3059
-3 c-10 -9 -11 -8 -5 6 3 10 9 15 12 12 3 -3 0 -11 -7 -18z m129 3 c-6 -11
-13 -20 -16 -20 -2 0 0 9 6 20 6 11 13 20 16 20 2 0 0 -9 -6 -20z m-29 -47
c-5 -10 -17 -27 -26 -38 -16 -19 -17 -19 -3 5 26 46 29 50 34 50 3 0 0 -8 -5
-17z m3449 -75 c-13 -13 -19 -16 -15 -8 14 25 28 41 32 36 3 -3 -5 -15 -17
-28z m166 9 c-10 -7 -27 -24 -38 -38 -11 -13 -16 -17 -12 -9 11 24 46 60 58
60 5 0 2 -6 -8 -13z m-1703 -117 c20 -33 22 -37 5 -16 -13 16 -40 49 -60 75
-21 25 -38 49 -38 53 0 13 64 -64 93 -112z m1933 88 c5 -7 2 -9 -7 -6 -21 8
-35 -5 -126 -117 -44 -55 -103 -121 -129 -146 -77 -72 -188 -165 -183 -154 2
6 45 46 94 89 105 91 130 118 237 249 76 93 99 110 114 85z m-426 -36 c0 -5
-7 -17 -15 -28 -14 -18 -14 -17 -4 9 12 27 19 34 19 19z m-49 -89 c-5 -10 -17
-27 -26 -38 -16 -19 -17 -19 -3 5 26 46 29 50 34 50 3 0 0 -8 -5 -17z m129
-43 c-11 -22 -23 -40 -25 -40 -3 0 4 18 15 40 11 22 23 40 25 40 3 0 -4 -18
-15 -40z m-922 -180 c167 -191 475 -534 529 -587 24 -24 64 -54 90 -67 27 -13
68 -42 93 -63 89 -78 187 -151 230 -173 25 -13 61 -34 82 -47 20 -14 53 -25
72 -26 19 0 33 -5 30 -9 -9 -13 -47 -9 -81 10 -17 9 -55 30 -85 46 -57 30
-138 90 -233 171 -33 28 -84 65 -114 81 -35 19 -84 62 -141 124 -229 250 -337
370 -417 463 -48 56 -125 145 -172 197 -47 52 -68 79 -47 60 21 -19 95 -100
164 -180z m-2707 183 c-5 -10 -24 -31 -42 -48 -30 -28 -29 -26 6 18 41 50 52
58 36 30z m-118 -34 c-14 -14 -23 -17 -27 -10 -4 6 0 11 9 11 8 0 18 7 22 15
3 9 8 13 11 10 3 -3 -3 -15 -15 -26z m3570 -4 c-3 -9 -8 -14 -10 -11 -3 3 -2
9 2 15 9 16 15 13 8 -4z m-1304 -90 c22 -30 41 -57 41 -61 0 -4 -20 19 -45 50
-25 32 -45 60 -45 62 0 11 11 -1 49 -51z m1426 25 c-17 -34 -157 -204 -177
-216 -15 -8 -9 -2 85 108 36 42 73 90 82 107 8 17 18 31 21 31 2 0 -2 -13 -11
-30z m-1500 -100 c14 -27 23 -50 20 -50 -2 0 -16 23 -30 50 -14 28 -23 50 -20
50 2 0 16 -22 30 -50z m1325 47 c0 -2 -12 -14 -27 -28 l-28 -24 24 28 c23 25
31 32 31 24z m-1076 -254 c4 -7 5 -13 3 -13 -7 0 -106 145 -114 167 -5 14 80
-105 111 -154z m1459 90 c39 -3 72 -1 85 6 14 7 22 8 22 2 0 -20 -79 -33 -133
-21 -60 13 -137 45 -137 58 0 5 22 -2 50 -16 30 -15 74 -26 113 -29z m-1392
-198 c6 -11 -1 -6 -15 10 -15 17 -31 39 -37 50 -5 11 2 7 16 -10 14 -16 31
-39 36 -50z m-136 -5 c9 -16 13 -30 11 -30 -3 0 -12 14 -21 30 -9 17 -13 30
-11 30 3 0 12 -13 21 -30z m40 -70 c9 -16 13 -30 11 -30 -3 0 -12 14 -21 30
-9 17 -13 30 -11 30 3 0 12 -13 21 -30z m186 -70 c68 -92 272 -379 284 -400
21 -39 -22 19 -137 180 -68 96 -141 197 -161 224 -35 45 -71 104 -50 81 5 -5
34 -44 64 -85z m1107 -105 c54 -28 86 -36 165 -45 79 -9 102 -9 115 2 15 12
16 11 3 -4 -9 -12 -27 -18 -55 -18 -63 0 -168 19 -201 37 -16 9 -47 24 -67 35
-34 17 -47 28 -32 28 3 0 35 -16 72 -35z m-1100 -117 c65 -101 64 -98 58 -98
-2 0 -25 31 -51 70 -25 38 -50 72 -56 75 -9 6 -13 25 -4 25 3 0 26 -33 53 -72z
m316 -238 c46 -69 270 -331 353 -412 43 -42 106 -98 140 -125 34 -26 105 -84
159 -128 l97 -80 96 -3 c119 -5 148 -22 36 -22 -102 1 -136 14 -221 83 -38 31
-103 83 -144 116 -41 33 -101 83 -134 113 -108 98 -440 498 -413 498 2 0 16
-18 31 -40z m-175 -27 c17 -27 38 -59 47 -73 9 -14 4 -10 -12 9 -31 38 -78
111 -70 111 2 0 18 -21 35 -47z m562 -179 c135 -149 178 -191 350 -342 125
-108 173 -142 204 -142 8 0 15 -5 15 -11 0 -45 -175 87 -388 295 -101 97 -342
361 -342 373 1 4 11 -4 23 -18 12 -15 74 -84 138 -155z m-411 -34 c12 -16 19
-30 16 -30 -2 0 -14 14 -26 30 -12 17 -19 30 -16 30 2 0 14 -13 26 -30z m181
-222 c17 -31 3 -20 -37 30 -36 45 -36 46 -5 17 18 -16 37 -38 42 -47z m276
-189 c57 -7 101 -20 162 -50 46 -21 82 -42 79 -44 -3 -3 -39 11 -81 31 -53 25
-100 39 -154 45 -76 10 -126 31 -154 66 -8 9 5 4 28 -11 31 -21 62 -30 120
-37z m51 -97 c12 -8 21 -16 19 -18 -5 -6 -85 34 -92 46 -7 11 36 -6 73 -28z
m162 -42 c11 -7 3 -10 -28 -10 -26 0 -41 4 -37 10 8 13 45 13 65 0z m-450
-139 c20 -14 27 -31 32 -75 10 -78 32 -122 127 -255 81 -114 101 -160 116
-261 4 -25 20 -98 36 -163 16 -65 42 -193 58 -285 16 -92 38 -190 49 -218 11
-28 25 -79 32 -115 32 -187 43 -241 62 -319 12 -47 22 -98 23 -115 1 -16 12
-84 23 -150 28 -158 40 -286 48 -507 7 -177 6 -184 -16 -228 -42 -83 -188
-250 -331 -379 -92 -83 -99 -87 -200 -120 -57 -18 -126 -43 -154 -55 -48 -20
-70 -21 -503 -26 -411 -5 -455 -3 -463 11 -11 21 -26 163 -34 314 -6 118 4
214 35 350 6 28 13 121 15 208 3 120 9 177 25 234 24 89 103 448 120 548 24
146 71 316 131 480 l62 170 5 136 c3 109 0 157 -17 245 -11 60 -24 144 -30
187 -9 75 -8 79 21 140 17 34 41 85 53 112 32 72 81 134 118 151 27 12 75 14
282 9 219 -5 253 -8 275 -24z m-740 -24 c0 -2 -10 -12 -22 -23 l-23 -19 19 23
c18 21 26 27 26 19z m945 -312 c41 -58 64 -95 53 -85 -20 18 -136 181 -118
165 12 -11 41 -47 65 -80z m681 -1875 c133 0 184 -3 184 -12 0 -19 -390 -2
-410 18 -13 14 -12 14 13 5 16 -6 107 -11 213 -11z m-2213 -258 c132 -3 162
-1 182 12 14 9 25 12 25 7 0 -27 -49 -36 -195 -35 -133 0 -157 2 -207 23 -32
12 -58 26 -58 31 0 5 21 -1 48 -13 41 -19 68 -22 205 -25z m2417 -156 c19 -1
-64 -3 -185 -4 -121 -1 -225 2 -232 6 -10 6 337 5 417 -2z m-2415 -161 c128
-11 154 -10 180 2 l30 14 -24 -21 c-28 -24 -13 -23 -226 -5 -93 8 -203 15
-242 15 -46 0 -73 4 -73 11 0 11 72 8 355 -16z"/>
</g>
</svg>
