<?xml version="1.0" encoding="utf-8"?>
<!-- Generator: Adobe Illustrator 16.0.0, SVG Export Plug-In . SVG Version: 6.00 Build 0)  -->
<!DOCTYPE svg PUBLIC "-//W3C//DTD SVG 1.1//EN" "http://www.w3.org/Graphics/SVG/1.1/DTD/svg11.dtd">
<svg version="1.1" id="Layer_1" xmlns="http://www.w3.org/2000/svg" xmlns:xlink="http://www.w3.org/1999/xlink" x="0px" y="0px"
	 width="1400px" height="980px" viewBox="0 0 1400 980" enable-background="new 0 0 1400 980" xml:space="preserve">
<g>
	<g>
		<rect x="-6011.4" y="-2850.7" fill="#FFFFFF" width="325.8" height="228.1"/>
	</g>
	<path fill="#E6E7E8" d="M-5870.1-2721.7h46.8c2.5,5.9,8.2,9.7,14.6,9.7c5.9,0,11.3-3.3,14-8.5l0.2-0.4h-15.8v-13.8h15.8l-0.2-0.4
		c-2.7-5.3-8.1-8.5-14-8.5c-6.4,0-12.1,3.8-14.6,9.7h-46.8c-2.5-5.9-8.2-9.7-14.6-9.7c-8.7,0-15.8,7.1-15.8,15.8
		c0,8.7,7.1,15.8,15.8,15.8C-5878.3-2712-5872.6-2715.8-5870.1-2721.7z M-5893.1-2723.1v-9.5l8.2-4.7l8.2,4.7v9.5l-8.2,4.7
		L-5893.1-2723.1z"/>
	<path fill="#FFF6B8" d="M-5841.1-2805.1c-13.9,0-25.1,11.2-25.1,25.1c0,4.8,1.4,9.3,3.7,13.1c2.1,3.7,8.4,14.5,14,23.3h7.4h7.4
		c5.7-8.8,11.9-19.6,14-23.3c2.3-3.8,3.7-8.3,3.7-13.1C-5816-2793.9-5827.2-2805.1-5841.1-2805.1z"/>
	<path fill="#67D9FF" d="M-5832.5-2708.5c0,0.2,0,0.5,0,0.7c0,8.9-7.2,16.1-16.1,16.1s-16.1-7.2-16.1-16.1c0-0.3,0-0.5,0-0.7h-19.2
		c0.7,18.1,15.6,32.6,33.9,32.6s33.2-14.5,33.9-32.6H-5832.5z"/>
	<path fill="none" stroke="#000000" stroke-miterlimit="10" d="M-5826.9-2713.6c0.1,1,0.2,2.1,0.2,3.2c0,12.8-10.4,23.2-23.2,23.2
		c-12.8,0-23.2-10.4-23.2-23.2c0-1.1,0.1-2.1,0.2-3.2"/>
	<path fill="none" stroke="#000000" stroke-miterlimit="10" d="M-5894.1-2709.7l0,7.5h7.4c1,4.3,2.6,8.3,4.9,11.9l-5.3,5.3
		l11.6,11.6l5.3-5.3c3.6,2.3,7.6,4,11.9,4.9v7.4h16.5v-7.4c4.3-1,8.3-2.6,11.9-4.9l5.3,5.3l11.6-11.6l-5.3-5.3
		c2.3-3.6,4-7.6,4.9-11.9h7.4v-6.8"/>
	<path fill="none" stroke="#000000" stroke-miterlimit="10" d="M-5872.5-2724.2h46.8c2.5,5.9,8.2,9.7,14.6,9.7
		c5.9,0,11.3-3.3,14-8.5l0.2-0.4h-15.8v-13.8h15.8l-0.2-0.4c-2.7-5.3-8.1-8.5-14-8.5c-6.4,0-12.1,3.8-14.6,9.7h-46.8
		c-2.5-5.9-8.2-9.7-14.6-9.7c-8.7,0-15.8,7.1-15.8,15.8c0,8.7,7.1,15.8,15.8,15.8C-5880.7-2714.5-5875-2718.3-5872.5-2724.2z
		 M-5895.5-2725.5v-9.5l8.2-4.7l8.2,4.7v9.5l-8.2,4.7L-5895.5-2725.5z"/>
	<path fill="none" stroke="#000000" stroke-miterlimit="10" d="M-5849.9-2814.2c-15.9,0-28.8,12.9-28.8,28.8c0,5.5,1.6,10.7,4.2,15
		c2.5,4.3,9.6,16.7,16.1,26.8h8.5h8.5c6.5-10.1,13.7-22.5,16.1-26.8c2.7-4.4,4.2-9.5,4.2-15
		C-5821.1-2801.3-5834-2814.2-5849.9-2814.2z"/>
	<path fill="none" stroke="#000000" stroke-miterlimit="10" d="M-5849.9-2807c11.9,0,21.6,9.7,21.6,21.6"/>
	<line fill="none" stroke="#000000" stroke-miterlimit="10" x1="-5865.6" y1="-2782.6" x2="-5834.3" y2="-2782.6"/>
	<line fill="none" stroke="#000000" stroke-miterlimit="10" x1="-5849.9" y1="-2787.8" x2="-5849.9" y2="-2743.6"/>
	<polyline fill="none" stroke="#000000" stroke-miterlimit="10" points="-5841.1,-2771.1 -5861.6,-2771.1 -5854.4,-2743.6 	"/>
	<line fill="none" stroke="#000000" stroke-miterlimit="10" x1="-5871.6" y1="-2728.8" x2="-5858.6" y2="-2728.8"/>
	<path fill="none" stroke="#000000" stroke-miterlimit="10" d="M-5822.1-2697.9c-4.6,10.8-15.3,18.4-27.8,18.4"/>
	<g>
		<path fill="#FFFFFF" stroke="#000000" stroke-miterlimit="10" d="M-5727.3-2723.8v66.6h-34v9.2c0,4.7-3.8,8.6-8.6,8.6
			c-4.2,0-7.7-3-8.4-7c-0.1-0.5-0.2-1.1-0.2-1.6v-75.7H-5727.3z"/>
		<path fill="#F1F2F2" stroke="#000000" stroke-miterlimit="10" d="M-5761.4-2648.1v-9.2h16.9h8.6h8.6h17.2v9.2
			c0,4.7-3.7,8.5-8.4,8.6v0h-17.4h-2.5h-10.1h-21.5C-5765.2-2639.5-5761.4-2643.3-5761.4-2648.1z"/>
	</g>
	<polygon fill="#F1F2F2" stroke="#000000" stroke-linecap="round" stroke-linejoin="round" stroke-miterlimit="10" points="
		-5789.3,-2644.2 -5815.6,-2659.3 -5789.3,-2674.5 	"/>
	<path fill="#F1F2F2" stroke="#000000" stroke-linecap="round" stroke-linejoin="round" stroke-miterlimit="10" d="M-5712.2-2759.6
		c0,5.4-4.4,9.9-9.9,9.9h-58.1c-5.4,0-9.9-4.4-9.9-9.9v-58c0-5.4,4.4-9.9,9.9-9.9h58.1c5.4,0,9.9,4.4,9.9,9.9V-2759.6z"/>
	<g>
		<path fill="#FFFFFF" stroke="#000000" stroke-miterlimit="10" d="M-5755.5-2804v-10.6c0-0.2,0.1-0.4,0.3-0.4c0,0,1.3-0.3,3-0.3
			c4.4,0,6.8,1.8,6.8,4.9v17.2h14.4c3.1,0,5.6,2.5,5.6,5.6v19.9c0,3.1-2.5,5.6-5.6,5.6h-36.6v-31.2L-5755.5-2804z"/>
		<path fill="#67D9FF" stroke="#000000" stroke-miterlimit="10" d="M-5789.8-2793.1h22.2v31.2h-22.2c-0.2,0-0.4-0.2-0.4-0.4v-30.3
			C-5790.2-2793-5790-2793.1-5789.8-2793.1z"/>
	</g>
	<path fill="#FFF6B8" stroke="#000000" stroke-miterlimit="10" d="M-5727.3-2715.1c-5.5,8.1-21.4,10.6-21.4,10.6s0.9,24.1,21.4,38.7
		c20.6-14.6,21.4-38.7,21.4-38.7S-5721.9-2707-5727.3-2715.1z"/>
	<path fill="none" stroke="#000000" stroke-miterlimit="10" d="M-5802.4-2637.5l-28.1-17.7h-38.9c-2-5.5-7.3-9.5-13.5-9.5
		c-7.9,0-14.3,6.4-14.3,14.3s6.4,14.3,14.3,14.3c2.3,0,4.4-0.5,6.4-1.5H-5802.4z"/>
	<line fill="none" stroke="#231F20" stroke-miterlimit="10" x1="-5778.9" y1="-2739.6" x2="-5759.1" y2="-2739.6"/>
	<line fill="none" stroke="#231F20" stroke-miterlimit="10" x1="-5751.1" y1="-2739.6" x2="-5736.3" y2="-2739.6"/>
	<circle fill="#FFFFFF" stroke="#000000" stroke-miterlimit="10" cx="-5778.9" cy="-2783.8" r="3.6"/>
	<line fill="none" stroke="#231F20" stroke-miterlimit="10" x1="-5725.3" y1="-2784.8" x2="-5731.1" y2="-2784.8"/>
	<line fill="none" stroke="#231F20" stroke-miterlimit="10" x1="-5725.3" y1="-2777.6" x2="-5731.1" y2="-2777.6"/>
	<line fill="none" stroke="#231F20" stroke-miterlimit="10" x1="-5725.3" y1="-2770.3" x2="-5731.1" y2="-2770.3"/>
	<line fill="none" stroke="#231F20" stroke-miterlimit="10" x1="-5790" y1="-2815.3" x2="-5815.6" y2="-2815.3"/>
	<line fill="none" stroke="#231F20" stroke-miterlimit="10" x1="-5790" y1="-2804.8" x2="-5805.8" y2="-2804.8"/>
	<polygon fill="#FFFFFF" stroke="#000000" stroke-miterlimit="10" points="-5942.9,-2730.4 -5990.9,-2730.4 -5990.9,-2642.7 
		-5927.9,-2642.7 -5927.9,-2715.5 	"/>
	<polygon fill="#F1F2F2" stroke="#000000" stroke-linecap="round" stroke-linejoin="round" stroke-miterlimit="10" points="
		-5942.5,-2715.5 -5927.5,-2715.5 -5942.5,-2730.4 	"/>
	<g>
		<path fill="#FFFFFF" stroke="#000000" stroke-miterlimit="10" d="M-5912.6-2678.1c0,4.2-0.9,8.1-2.4,11.7c2.5,1.4,4.7,3.2,6.6,5.4
			c4-4.6,6.5-10.6,6.5-17.2L-5912.6-2678.1C-5912.6-2678.2-5912.6-2678.2-5912.6-2678.1z"/>
		<path fill="#FFFFFF" stroke="#000000" stroke-miterlimit="10" d="M-5915.1-2690c1.6,3.6,2.5,7.6,2.5,11.8h10.6
			c0-6.6-2.5-12.6-6.5-17.2C-5910.4-2693.2-5912.6-2691.4-5915.1-2690z"/>
		<path fill="#FFFFFF" stroke="#000000" stroke-miterlimit="10" d="M-5940.9-2666.4c-1.6-3.6-2.4-7.6-2.4-11.8c0,0,0,0,0-0.1h-10.6
			c0,6.6,2.5,12.6,6.5,17.2C-5945.5-2663.1-5943.3-2665-5940.9-2666.4z"/>
		<path fill="#FFFFFF" stroke="#000000" stroke-miterlimit="10" d="M-5940.8-2690c-2.5-1.4-4.7-3.2-6.6-5.4
			c-4,4.6-6.5,10.6-6.5,17.2h10.6C-5943.3-2682.4-5942.4-2686.4-5940.8-2690z"/>
		<path fill="#FFFFFF" stroke="#000000" stroke-miterlimit="10" d="M-5943.3-2678.2C-5943.3-2678.2-5943.3-2678.2-5943.3-2678.2
			c0,4.2,0.9,8.2,2.4,11.8c3.8-2.2,8.2-3.4,12.9-3.4v-8.4H-5943.3z"/>
		<path fill="#FFFFFF" stroke="#000000" stroke-miterlimit="10" d="M-5927.9-2686.6c-4.7,0-9.1-1.2-12.9-3.4
			c-1.6,3.6-2.5,7.6-2.5,11.8h15.3V-2686.6z"/>
		<path fill="#FFFFFF" stroke="#000000" stroke-miterlimit="10" d="M-5927.9-2678.2h15.3c0-4.2-0.9-8.2-2.5-11.8
			c-3.8,2.2-8.2,3.4-12.8,3.4V-2678.2z"/>
		<path fill="#FFFFFF" stroke="#000000" stroke-miterlimit="10" d="M-5927.9-2669.8c4.7,0,9.1,1.3,12.9,3.4
			c1.6-3.6,2.4-7.6,2.4-11.7c0,0,0,0,0-0.1h-15.3V-2669.8z"/>
		<path fill="#FFFFFF" stroke="#000000" stroke-miterlimit="10" d="M-5927.8-2704.2C-5927.9-2704.1-5927.9-2704.1-5927.8-2704.2
			L-5927.8-2704.2c5.6,3.2,10.1,8.2,12.7,14.2c2.5-1.4,4.7-3.2,6.6-5.4C-5913.2-2700.7-5920.1-2704.1-5927.8-2704.2z"/>
		<path fill="#FFFFFF" stroke="#000000" stroke-miterlimit="10" d="M-5940.8-2690c2.6-6,7.2-10.9,12.9-14.1c0,0-0.1,0-0.1-0.1
			c-7.7,0-14.6,3.4-19.3,8.8C-5945.5-2693.2-5943.3-2691.4-5940.8-2690z"/>
		<path fill="#FFFFFF" stroke="#000000" stroke-miterlimit="10" d="M-5940.8-2690c3.8,2.2,8.2,3.4,12.9,3.4v-17.5c0,0,0,0,0,0
			C-5933.7-2700.9-5938.2-2696-5940.8-2690z"/>
		<path fill="#FFFFFF" stroke="#000000" stroke-miterlimit="10" d="M-5915.1-2690c-2.6-6-7.2-10.9-12.8-14.1v17.5
			C-5923.3-2686.6-5918.9-2687.8-5915.1-2690z"/>
		<path fill="#FFFFFF" stroke="#000000" stroke-miterlimit="10" d="M-5915.1-2666.4c-2.6,6-7.1,11-12.8,14.1
			c7.7,0,14.6-3.4,19.3-8.8C-5910.4-2663.2-5912.6-2665-5915.1-2666.4z"/>
		<path fill="#FFFFFF" stroke="#000000" stroke-miterlimit="10" d="M-5940.9-2666.4c-2.5,1.4-4.7,3.2-6.5,5.3
			c4.7,5.4,11.6,8.7,19.3,8.8C-5933.8-2655.4-5938.3-2660.4-5940.9-2666.4z"/>
		<path fill="#FFFFFF" stroke="#000000" stroke-miterlimit="10" d="M-5915.1-2666.4c-3.8-2.2-8.2-3.4-12.9-3.4v17.6c0,0,0.1,0,0.1,0
			C-5922.2-2655.4-5917.7-2660.4-5915.1-2666.4z"/>
		<path fill="#FFFFFF" stroke="#000000" stroke-miterlimit="10" d="M-5927.9-2669.8c-4.7,0-9.1,1.3-12.9,3.4c2.6,6,7.1,11,12.8,14.1
			c0,0,0.1,0,0.1,0V-2669.8z"/>
	</g>
	<rect x="-5977.4" y="-2828.7" fill="none" stroke="#000000" stroke-miterlimit="10" width="50.1" height="19.6"/>
	<line fill="none" stroke="#000000" stroke-miterlimit="10" x1="-5953.3" y1="-2809.1" x2="-5953.3" y2="-2776.1"/>
	<polyline fill="none" stroke="#000000" stroke-miterlimit="10" points="-5917.5,-2776.1 -5917.5,-2794.4 -5982.1,-2794.4 
		-5982.1,-2776.1 	"/>
	
		<rect x="-5927.3" y="-2776.1" fill="#F1F2F2" stroke="#000000" stroke-linecap="round" stroke-linejoin="round" stroke-miterlimit="10" width="19.6" height="19.6"/>
	<rect x="-5963.1" y="-2776.1" fill="#67D9FF" stroke="#000000" stroke-miterlimit="10" width="19.6" height="19.6"/>
	<rect x="-5991.9" y="-2776.1" fill="#67D9FF" stroke="#000000" stroke-miterlimit="10" width="19.6" height="19.6"/>
	<polygon fill="#FFFFFF" stroke="#000000" stroke-miterlimit="10" points="-5865.6,-2832.8 -5912.2,-2832.8 -5912.2,-2804.9 
		-5895,-2804.9 -5883.4,-2794.4 -5884.4,-2804.9 -5865.6,-2804.9 	"/>
	<circle fill="#FFFFFF" stroke="#000000" stroke-miterlimit="10" cx="-5849.9" cy="-2826.6" r="3.7"/>
	<circle fill="#FFFFFF" stroke="#000000" stroke-miterlimit="10" cx="-5893.6" cy="-2772.5" r="3.7"/>
	<circle fill="#FFFFFF" stroke="#000000" stroke-miterlimit="10" cx="-5809.5" cy="-2758.6" r="2.6"/>
	<g>
		<line fill="none" stroke="#000000" stroke-miterlimit="10" x1="-5832.9" y1="-2836.1" x2="-5826.3" y2="-2829.5"/>
		<line fill="none" stroke="#000000" stroke-miterlimit="10" x1="-5826.3" y1="-2836.1" x2="-5832.9" y2="-2829.5"/>
	</g>
	<g>
		<line fill="none" stroke="#000000" stroke-miterlimit="10" x1="-5885.4" y1="-2762" x2="-5878.8" y2="-2755.3"/>
		<line fill="none" stroke="#000000" stroke-miterlimit="10" x1="-5878.8" y1="-2762" x2="-5885.4" y2="-2755.3"/>
	</g>
	<g>
		<line fill="none" stroke="#000000" stroke-miterlimit="10" x1="-5922.1" y1="-2770.9" x2="-5912.9" y2="-2761.8"/>
		<line fill="none" stroke="#000000" stroke-miterlimit="10" x1="-5912.9" y1="-2770.9" x2="-5922.1" y2="-2761.8"/>
	</g>
	<g>
		<line fill="none" stroke="#000000" stroke-miterlimit="10" x1="-5808.6" y1="-2783.8" x2="-5801.9" y2="-2777.2"/>
		<line fill="none" stroke="#000000" stroke-miterlimit="10" x1="-5801.9" y1="-2783.8" x2="-5808.6" y2="-2777.2"/>
	</g>
	<line fill="none" stroke="#000000" stroke-miterlimit="10" x1="-5822.4" y1="-2815.3" x2="-5829.6" y2="-2815.3"/>
	<line fill="none" stroke="#000000" stroke-miterlimit="10" x1="-5815.6" y1="-2822.9" x2="-5808.6" y2="-2822.9"/>
	<line fill="none" stroke="#000000" stroke-miterlimit="10" x1="-5990.9" y1="-2743.6" x2="-5949.8" y2="-2743.6"/>
	<line fill="none" stroke="#000000" stroke-miterlimit="10" x1="-5937.7" y1="-2743.6" x2="-5921.5" y2="-2743.6"/>
	<line fill="none" stroke="#000000" stroke-miterlimit="10" x1="-5927.8" y1="-2730.4" x2="-5918.2" y2="-2730.4"/>
	<g>
		<path fill="#FFF6B8" stroke="#000000" stroke-miterlimit="10" d="M-5757.2-2721.1c1.6-2.3,2.6-5.1,2.6-8.2
			c0-7.9-6.4-14.3-14.3-14.3c-7.9,0-14.3,6.4-14.3,14.3c0,3,0.9,5.9,2.6,8.2l11.8,19.7L-5757.2-2721.1z"/>
		<circle fill="#FFFFFF" stroke="#000000" stroke-miterlimit="10" cx="-5769" cy="-2728.5" r="7.3"/>
	</g>
	<circle fill="#67D9FF" stroke="#000000" stroke-miterlimit="10" cx="-5769" cy="-2691.5" r="4.7"/>
	<circle fill="#67D9FF" stroke="#000000" stroke-miterlimit="10" cx="-5769" cy="-2673.5" r="4.7"/>
	<line fill="none" stroke="#000000" stroke-miterlimit="10" x1="-5760.1" y1="-2691.5" x2="-5746.1" y2="-2691.5"/>
	<line fill="none" stroke="#000000" stroke-miterlimit="10" x1="-5760.1" y1="-2673.5" x2="-5735.9" y2="-2673.5"/>
	<circle fill="#FFFFFF" stroke="#000000" stroke-miterlimit="10" cx="-5727.3" cy="-2695" r="5.7"/>
	<line fill="none" stroke="#000000" stroke-miterlimit="10" x1="-5727.3" y1="-2689.3" x2="-5727.3" y2="-2673.5"/>
	<line fill="none" stroke="#000000" stroke-miterlimit="10" x1="-5721.6" y1="-2695" x2="-5714.3" y2="-2695"/>
	<polyline fill="none" stroke="#000000" stroke-miterlimit="10" points="-5988.7,-2766.9 -5984,-2762.1 -5975.6,-2770.5 	"/>
	<polyline fill="none" stroke="#000000" stroke-miterlimit="10" points="-5959.9,-2766.9 -5955.1,-2762.1 -5946.8,-2770.5 	"/>
	<rect x="-5944.4" y="-2833.7" fill="#FFF6B8" stroke="#000000" stroke-miterlimit="10" width="8" height="24.6"/>
	<rect x="-5952.3" y="-2823.9" fill="#FFF6B8" stroke="#000000" stroke-miterlimit="10" width="8" height="14.8"/>
	<rect x="-5960.3" y="-2817" fill="#FFF6B8" stroke="#000000" stroke-miterlimit="10" width="8" height="7.9"/>
	<rect x="-5968.3" y="-2823.9" fill="#FFF6B8" stroke="#000000" stroke-miterlimit="10" width="8" height="14.8"/>
	
		<circle fill="#F1F2F2" stroke="#000000" stroke-linecap="round" stroke-linejoin="round" stroke-miterlimit="10" cx="-5902.9" cy="-2818.9" r="3.6"/>
	
		<circle fill="#F1F2F2" stroke="#000000" stroke-linecap="round" stroke-linejoin="round" stroke-miterlimit="10" cx="-5888.9" cy="-2818.9" r="3.6"/>
	
		<circle fill="#F1F2F2" stroke="#000000" stroke-linecap="round" stroke-linejoin="round" stroke-miterlimit="10" cx="-5874.9" cy="-2818.9" r="3.6"/>
	<circle fill="#67D9FF" stroke="#000000" stroke-miterlimit="10" cx="-5882.9" cy="-2650.2" r="10.6"/>
	<line fill="none" stroke="#000000" stroke-miterlimit="10" x1="-5889.4" y1="-2650.2" x2="-5876.3" y2="-2650.2"/>
	<line fill="none" stroke="#000000" stroke-miterlimit="10" x1="-5882.9" y1="-2656.7" x2="-5882.9" y2="-2643.6"/>
	<line fill="none" stroke="#000000" stroke-miterlimit="10" x1="-5869.2" y1="-2649.8" x2="-5834.1" y2="-2649.8"/>
	<line fill="none" stroke="#000000" stroke-miterlimit="10" x1="-5869.2" y1="-2643.6" x2="-5823.7" y2="-2643.6"/>
	<circle fill="#FFF6B8" stroke="#000000" stroke-miterlimit="10" cx="-5979.2" cy="-2712" r="5.1"/>
	<circle fill="#FFF6B8" stroke="#000000" stroke-miterlimit="10" cx="-5979.2" cy="-2697.1" r="5.1"/>
	<line fill="none" stroke="#000000" stroke-miterlimit="10" x1="-5970.4" y1="-2712" x2="-5946.8" y2="-2712"/>
	<line fill="none" stroke="#000000" stroke-miterlimit="10" x1="-5970.4" y1="-2695.3" x2="-5953.9" y2="-2695.3"/>
	<polygon fill="#67D9FF" stroke="#000000" stroke-miterlimit="10" points="-5962.1,-2669.6 -5973.5,-2679.5 -5973.5,-2675.4 
		-5990.9,-2675.4 -5990.9,-2662.9 -5973.5,-2662.9 -5973.5,-2659.8 	"/>
</g>
<g>
	<g>
		<g>
			<rect fill="#FFFFFF" width="1400" height="980"/>
		</g>
	</g>
	<g>
		<path fill="#F1F2F2" d="M558,689.8c0,14.6,11.9,26.5,26.5,26.5h230.9c14.6,0,26.5-11.9,26.5-26.5v-43.4H558V689.8z"/>
		<path d="M815.5,719.6H584.5c-16.4,0-29.8-13.4-29.8-29.8v-43.4c0-1.8,1.5-3.3,3.3-3.3H842c1.8,0,3.3,1.5,3.3,3.3v43.4
			C845.3,706.2,831.9,719.6,815.5,719.6z M561.4,649.7v40.1c0,12.8,10.4,23.1,23.2,23.1h230.9c12.8,0,23.2-10.4,23.2-23.1v-40.1
			H561.4z"/>
	</g>
	<g>
		<path fill="#BCBEC0" d="M719.5,684.2c0,10.8-8.7,19.5-19.5,19.5c-10.8,0-19.5-8.7-19.5-19.5c0-10.8,8.7-19.5,19.5-19.5
			C710.8,664.7,719.5,673.5,719.5,684.2z"/>
		<path d="M700,707c-12.6,0-22.8-10.2-22.8-22.8c0-12.6,10.2-22.8,22.8-22.8c12.6,0,22.8,10.2,22.8,22.8
			C722.8,696.8,712.6,707,700,707z M700,668.1c-8.9,0-16.2,7.3-16.2,16.2c0,8.9,7.3,16.2,16.2,16.2s16.2-7.2,16.2-16.2
			C716.2,675.3,708.9,668.1,700,668.1z"/>
	</g>
	<g>
		<path fill="#F1F2F2" d="M842,270.4c0-14.6-11.9-26.5-26.5-26.5H584.5c-14.6,0-26.5,11.9-26.5,26.5v37.5H842V270.4z"/>
		<path d="M842,311.3H558c-1.8,0-3.3-1.5-3.3-3.3v-37.5c0-16.4,13.4-29.8,29.8-29.8h230.9c16.4,0,29.8,13.4,29.8,29.8v37.5
			C845.3,309.8,843.8,311.3,842,311.3z M561.4,304.6h277.3v-34.2c0-12.8-10.4-23.2-23.2-23.2H584.5c-12.8,0-23.2,10.4-23.2,23.2
			V304.6z"/>
	</g>
	<g>
		<rect x="558" y="307.9" fill="#FF91C4" width="283.9" height="338.4"/>
		<path d="M842,649.7H558c-1.8,0-3.3-1.5-3.3-3.3V307.9c0-1.8,1.5-3.3,3.3-3.3H842c1.8,0,3.3,1.5,3.3,3.3v338.4
			C845.3,648.2,843.8,649.7,842,649.7z M561.4,643h277.3V311.3H561.4V643z"/>
	</g>
	<g>
		<line fill="#FFFFFF" x1="658.9" y1="275.9" x2="741.4" y2="275.9"/>
		<path d="M741.4,279.3h-82.4c-1.8,0-3.3-1.5-3.3-3.3s1.5-3.3,3.3-3.3h82.4c1.8,0,3.3,1.5,3.3,3.3S743.2,279.3,741.4,279.3z"/>
	</g>
	<g>
		<g>
			<path fill="#4FD8FF" d="M905.8,541.1c0,13.3-10.8,24-24,24H679.4c-13.3,0-24-10.8-24-24v-135c0-13.3,10.8-24,24-24h202.4
				c13.3,0,24,10.8,24,24V541.1z"/>
			<path d="M881.8,568.4H679.4c-15.1,0-27.4-12.3-27.4-27.4v-135c0-15.1,12.3-27.4,27.4-27.4h202.4c15.1,0,27.4,12.3,27.4,27.4v135
				C909.1,556.1,896.9,568.4,881.8,568.4z M679.4,385.4c-11.4,0-20.7,9.3-20.7,20.7v135c0,11.4,9.3,20.7,20.7,20.7h202.4
				c11.4,0,20.7-9.3,20.7-20.7v-135c0-11.4-9.3-20.7-20.7-20.7H679.4z"/>
		</g>
		<g>
			<path d="M849.4,533.7H704.1c-1.8,0-3.3-1.5-3.3-3.3V425.4c0-6.4-1.8-11.3-5.4-14.6c-6.2-5.7-16-5-16.1-5l-23.9,0
				c-1.8,0-3.3-1.5-3.3-3.3s1.5-3.3,3.3-3.3H679c0.2,0,12.4-1,20.8,6.7c5,4.6,7.5,11.2,7.5,19.5V527h142c1.8,0,3.3,1.5,3.3,3.3
				C852.8,532.2,851.3,533.7,849.4,533.7z"/>
		</g>
		<g>
			<path d="M704.1,509c-1.7,0-3.1-1.2-3.3-2.9c-0.2-1.8,1.1-3.5,2.9-3.7l142.9-17.6l11.4-71.4c0.3-1.8,2-3.1,3.8-2.8
				c1.8,0.3,3.1,2,2.8,3.8l-11.8,73.9c-0.2,1.5-1.4,2.6-2.9,2.8L704.5,509C704.3,509,704.2,509,704.1,509z"/>
		</g>
		<g>
			<path d="M859.2,428.8H704.1c-1.8,0-3.3-1.5-3.3-3.3c0-1.8,1.5-3.3,3.3-3.3h155.2c1.8,0,3.3,1.5,3.3,3.3
				C862.6,427.3,861.1,428.8,859.2,428.8z"/>
		</g>
		<g>
			<path fill="#FFFFFF" d="M744.3,530.4c0,7.9-6.4,14.3-14.3,14.3c-7.9,0-14.3-6.4-14.3-14.3c0-7.9,6.4-14.3,14.3-14.3
				C737.9,516,744.3,522.4,744.3,530.4z"/>
			<path d="M730,548c-9.7,0-17.7-7.9-17.7-17.7c0-9.7,7.9-17.7,17.7-17.7c9.7,0,17.7,7.9,17.7,17.7C747.6,540.1,739.7,548,730,548z
				 M730,519.4c-6.1,0-11,4.9-11,11c0,6.1,4.9,11,11,11s11-4.9,11-11C741,524.3,736,519.4,730,519.4z"/>
		</g>
		<g>
			<path fill="#FFFFFF" d="M855,530.4c0,7.9-6.4,14.3-14.3,14.3c-7.9,0-14.3-6.4-14.3-14.3c0-7.9,6.4-14.3,14.3-14.3
				C848.5,516,855,522.4,855,530.4z"/>
			<path d="M840.6,548c-9.7,0-17.7-7.9-17.7-17.7c0-9.7,7.9-17.7,17.7-17.7s17.7,7.9,17.7,17.7C858.3,540.1,850.4,548,840.6,548z
				 M840.6,519.4c-6.1,0-11,4.9-11,11c0,6.1,4.9,11,11,11s11-4.9,11-11C851.6,524.3,846.7,519.4,840.6,519.4z"/>
		</g>
		<g>
			<polygon fill="#FFFFFF" points="704.1,425.4 704.1,505.7 849.4,487.7 859.2,425.4 			"/>
			<path d="M704.1,509c-0.8,0-1.6-0.3-2.2-0.8c-0.7-0.6-1.1-1.5-1.1-2.5v-80.2c0-1.8,1.5-3.3,3.3-3.3h155.2c1,0,1.9,0.4,2.5,1.2
				c0.6,0.7,0.9,1.7,0.8,2.7l-9.8,62.3c-0.2,1.5-1.4,2.6-2.9,2.8L704.5,509C704.3,509,704.2,509,704.1,509z M707.4,428.8v73.1
				l139.1-17.1l8.8-56H707.4z"/>
		</g>
		<g>
			<path d="M704.1,469.7c-1.7,0-3.2-1.3-3.3-3.1c-0.1-1.8,1.3-3.4,3.1-3.6l160.4-11.3c1.9-0.2,3.4,1.3,3.6,3.1
				c0.1,1.8-1.3,3.4-3.1,3.6l-160.4,11.3C704.2,469.7,704.1,469.7,704.1,469.7z"/>
		</g>
		<g>
			<path d="M755.3,509.9c-1.8,0-3.3-1.5-3.3-3.3v-81.1c0-1.8,1.5-3.3,3.3-3.3s3.3,1.5,3.3,3.3v81.1
				C758.6,508.4,757.1,509.9,755.3,509.9z"/>
		</g>
		<g>
			<path d="M809.2,504.1c-1.8,0-3.3-1.5-3.3-3.3v-75.4c0-1.8,1.5-3.3,3.3-3.3c1.8,0,3.3,1.5,3.3,3.3v75.4
				C812.5,502.7,811,504.1,809.2,504.1z"/>
		</g>
	</g>
	<g>
		<g>
			<circle fill="#FFEE7F" cx="550.2" cy="651.4" r="99.6"/>
			<path d="M550.2,754.4c-56.8,0-103-46.2-103-103c0-56.8,46.2-103,103-103c56.8,0,103,46.2,103,103
				C653.2,708.2,607,754.4,550.2,754.4z M550.2,555.1c-53.1,0-96.3,43.2-96.3,96.3c0,53.1,43.2,96.3,96.3,96.3
				c53.1,0,96.3-43.2,96.3-96.3C646.5,598.3,603.3,555.1,550.2,555.1z"/>
		</g>
		<g>
			<path d="M550.2,663.5c-0.7,0-1.5-0.2-2.1-0.7l-50.5-40.4c-1.4-1.2-1.7-3.2-0.5-4.7c1.2-1.4,3.3-1.7,4.7-0.5l48.2,38.6l61.4-61.4
				c1.3-1.3,3.4-1.3,4.7,0c1.3,1.3,1.3,3.4,0,4.7l-63.5,63.5C551.9,663.1,551,663.5,550.2,663.5z"/>
		</g>
	</g>
	<g>
		<path d="M1310.2,548H966.7c-1.8,0-3.3-1.5-3.3-3.3V87c0-1.3,0.8-2.6,2.1-3.1c1.3-0.5,2.7-0.2,3.6,0.7l23.1,23.1l26.9-26.9
			c0.6-0.6,1.5-1,2.4-1l0,0c0.9,0,1.7,0.4,2.4,1l26.9,26.9l26.9-26.9c1.3-1.2,3.5-1.2,4.7,0l26.9,26.9l26.9-26.9
			c1.2-1.2,3.5-1.2,4.7,0l26.9,26.9l26.9-26.9c0.6-0.6,1.5-1,2.4-1l0,0c0.9,0,1.7,0.4,2.4,1l26.9,26.9l26.9-26.9
			c0.6-0.6,1.5-1,2.4-1l0,0c0.9,0,1.7,0.4,2.4,1l26.9,26.9l22.7-22.8c1-1,2.4-1.2,3.6-0.7c1.2,0.5,2.1,1.7,2.1,3.1v457.4
			C1313.5,546.5,1312,548,1310.2,548z M970,541.3h336.8v-446l-19.4,19.4c-1.2,1.3-3.5,1.3-4.7,0l-26.9-26.9l-26.9,26.9
			c-0.6,0.6-1.5,1-2.4,1l0,0c-0.9,0-1.7-0.4-2.4-1l-26.9-26.9l-26.9,26.9c-1.3,1.3-3.5,1.3-4.7,0l-26.9-26.9l-26.9,26.9
			c-1.3,1.3-3.5,1.3-4.7,0L1080,87.8l-26.9,26.9c-1.2,1.3-3.5,1.3-4.7,0l-26.9-26.9l-26.9,26.9c-1.3,1.3-3.5,1.3-4.7,0L970,95V541.3
			z"/>
	</g>
	<g>
		<path d="M1068,511.3c-36.5,0-66.2-29.7-66.2-66.2c0-36.5,29.7-66.2,66.2-66.2c36.5,0,66.2,29.7,66.2,66.2
			C1134.2,481.6,1104.5,511.3,1068,511.3z M1068,385.6c-32.8,0-59.5,26.7-59.5,59.5s26.7,59.5,59.5,59.5s59.5-26.7,59.5-59.5
			S1100.8,385.6,1068,385.6z"/>
	</g>
	<g>
		<path d="M1113.5,171h-95.3c-1.8,0-3.3-1.5-3.3-3.3c0-1.8,1.5-3.3,3.3-3.3h95.3c1.8,0,3.3,1.5,3.3,3.3
			C1116.8,169.5,1115.3,171,1113.5,171z"/>
	</g>
	<g>
		<path d="M1258.7,171h-95.3c-1.8,0-3.3-1.5-3.3-3.3c0-1.8,1.5-3.3,3.3-3.3h95.3c1.8,0,3.3,1.5,3.3,3.3
			C1262,169.5,1260.5,171,1258.7,171z"/>
	</g>
	<g>
		<path d="M1113.5,227.2h-95.3c-1.8,0-3.3-1.5-3.3-3.3s1.5-3.3,3.3-3.3h95.3c1.8,0,3.3,1.5,3.3,3.3S1115.3,227.2,1113.5,227.2z"/>
	</g>
	<g>
		<path d="M1258.7,227.2h-95.3c-1.8,0-3.3-1.5-3.3-3.3s1.5-3.3,3.3-3.3h95.3c1.8,0,3.3,1.5,3.3,3.3S1260.5,227.2,1258.7,227.2z"/>
	</g>
	<g>
		<path d="M1113.5,283.4h-95.3c-1.8,0-3.3-1.5-3.3-3.3c0-1.8,1.5-3.3,3.3-3.3h95.3c1.8,0,3.3,1.5,3.3,3.3
			C1116.8,281.9,1115.3,283.4,1113.5,283.4z"/>
	</g>
	<g>
		<path d="M1258.7,283.4h-95.3c-1.8,0-3.3-1.5-3.3-3.3c0-1.8,1.5-3.3,3.3-3.3h95.3c1.8,0,3.3,1.5,3.3,3.3
			C1262,281.9,1260.5,283.4,1258.7,283.4z"/>
	</g>
	<g>
		<path d="M1113.5,339.6h-95.3c-1.8,0-3.3-1.5-3.3-3.3c0-1.8,1.5-3.3,3.3-3.3h95.3c1.8,0,3.3,1.5,3.3,3.3
			C1116.8,338.1,1115.3,339.6,1113.5,339.6z"/>
	</g>
	<g>
		<path d="M1258.7,339.6h-95.3c-1.8,0-3.3-1.5-3.3-3.3c0-1.8,1.5-3.3,3.3-3.3h95.3c1.8,0,3.3,1.5,3.3,3.3
			C1262,338.1,1260.5,339.6,1258.7,339.6z"/>
	</g>
	<g>
		<path d="M1258.7,395.8h-95.3c-1.8,0-3.3-1.5-3.3-3.3s1.5-3.3,3.3-3.3h95.3c1.8,0,3.3,1.5,3.3,3.3S1260.5,395.8,1258.7,395.8z"/>
	</g>
	<g>
		<path d="M1258.7,452h-95.3c-1.8,0-3.3-1.5-3.3-3.3s1.5-3.3,3.3-3.3h95.3c1.8,0,3.3,1.5,3.3,3.3S1260.5,452,1258.7,452z"/>
	</g>
	<g>
		<g>
			<path d="M1064.6,486.4v-10.1c-5.8-0.1-11.9-1.9-15.4-4.4l2.4-6.7c3.6,2.4,8.8,4.3,14.5,4.3c7.1,0,12-4.1,12-9.9
				c0-5.5-3.9-8.9-11.4-11.9c-10.2-4-16.6-8.6-16.6-17.4c0-8.3,5.9-14.7,15.2-16.2v-10.2h6.2v9.8c6,0.2,10.1,1.8,13.1,3.5l-2.5,6.6
				c-2.1-1.2-6.2-3.4-12.7-3.4c-7.7,0-10.7,4.6-10.7,8.6c0,5.2,3.7,7.8,12.5,11.5c10.4,4.2,15.6,9.4,15.6,18.4
				c0,7.9-5.5,15.4-15.9,17.1v10.5H1064.6z"/>
		</g>
	</g>
	<g>
		<path d="M1113.5,794.1c-54,0-97.9-43.9-97.9-97.9s43.9-97.9,97.9-97.9s97.9,43.9,97.9,97.9S1167.5,794.1,1113.5,794.1z
			 M1113.5,604.9c-50.3,0-91.3,40.9-91.3,91.3s40.9,91.3,91.3,91.3s91.3-40.9,91.3-91.3S1163.8,604.9,1113.5,604.9z"/>
	</g>
	<g>
		<g>
			<path d="M1289.1,840h-285.6c-52.5,0-56.6-55-56.6-55.6l0-188.5c0-1.8,1.5-3.3,3.3-3.3c1.8,0,3.3,1.5,3.3,3.3v188.3
				c0.1,1.8,3.8,49.1,50,49.1h285.6c1.8,0,3.3,1.5,3.3,3.3S1290.9,840,1289.1,840z"/>
		</g>
		<g>
			<path d="M1019.6,910.8c-15.8,0-28.6-12.8-28.6-28.6c0-15.8,12.8-28.6,28.6-28.6c15.8,0,28.6,12.8,28.6,28.6
				C1048.2,897.9,1035.4,910.8,1019.6,910.8z M1019.6,860.2c-12.1,0-21.9,9.8-21.9,21.9c0,12.1,9.8,21.9,21.9,21.9
				c12.1,0,21.9-9.8,21.9-21.9C1041.5,870.1,1031.7,860.2,1019.6,860.2z"/>
		</g>
		<g>
			<path d="M1253.6,910.8c-15.8,0-28.6-12.8-28.6-28.6c0-15.8,12.8-28.6,28.6-28.6s28.6,12.8,28.6,28.6
				C1282.2,897.9,1269.4,910.8,1253.6,910.8z M1253.6,860.2c-12.1,0-21.9,9.8-21.9,21.9c0,12.1,9.8,21.9,21.9,21.9
				s21.9-9.8,21.9-21.9C1275.5,870.1,1265.7,860.2,1253.6,860.2z"/>
		</g>
		<g>
			<path d="M1245.6,794.1h-132.1c-1.8,0-3.3-1.5-3.3-3.3s1.5-3.3,3.3-3.3h132.1c1.8,0,3.3,1.5,3.3,3.3S1247.5,794.1,1245.6,794.1z"
				/>
		</g>
		<g>
			<path d="M1289.1,747.8h-94.3c-1.8,0-3.3-1.5-3.3-3.3c0-1.8,1.5-3.3,3.3-3.3h94.3c1.8,0,3.3,1.5,3.3,3.3
				C1292.4,746.3,1290.9,747.8,1289.1,747.8z"/>
		</g>
		<g>
			<path d="M1320.6,699.5h-112.5c-1.8,0-3.3-1.5-3.3-3.3s1.5-3.3,3.3-3.3h112.5c1.8,0,3.3,1.5,3.3,3.3S1322.4,699.5,1320.6,699.5z"
				/>
		</g>
		<g>
			<path d="M1100.2,743.9c-0.9,0-1.7-0.3-2.4-1l-44.7-44.7c-1.3-1.3-1.3-3.4,0-4.7c1.3-1.3,3.4-1.3,4.7,0l42.4,42.4l73.6-73.6
				c1.3-1.3,3.4-1.3,4.7,0c1.3,1.3,1.3,3.4,0,4.7l-76,76C1102,743.6,1101.1,743.9,1100.2,743.9z"/>
		</g>
		<g>
			<path d="M950.2,630.7h-44.4c-1.8,0-3.3-1.5-3.3-3.3s1.5-3.3,3.3-3.3h44.4c1.8,0,3.3,1.5,3.3,3.3S952,630.7,950.2,630.7z"/>
		</g>
	</g>
	<g>
		<path d="M462.6,233.9c-0.5,0-1-0.1-1.4-0.3c-1.2-0.6-1.9-1.7-1.9-3V83.1c0-1.8,1.5-3.3,3.3-3.3h426.5c1.8,0,3.3,1.5,3.3,3.3v97.2
			c0,1.8-1.5,3.3-3.3,3.3H526.5l-61.8,49.5C464.1,233.7,463.3,233.9,462.6,233.9z M465.9,86.5v137.2l57.3-45.9
			c0.6-0.5,1.3-0.7,2.1-0.7h360.4V86.5H465.9z"/>
	</g>
	<g>
		<path d="M889.1,910.8H540.3c-1.8,0-3.3-1.5-3.3-3.3V779.6c0-1.8,1.5-3.3,3.3-3.3h348.8c1.8,0,3.3,1.5,3.3,3.3v127.9
			C892.4,909.3,890.9,910.8,889.1,910.8z M543.7,904.1h342.1V782.9H543.7V904.1z"/>
	</g>
	<g>
		<g>
			<path d="M657.7,811.2c-4.1-3.8-9.6-5.8-16.3-5.8c-7.3,0-13.1,2.1-17.2,6.2s-6.2,9.9-6.2,17.2v2.3h6.5v-2.5
				c0-5.3,1.5-9.6,4.5-12.6c3-3.1,7.1-4.6,12.5-4.6c5,0,8.8,1.4,11.7,4.3c2.9,2.9,4.3,6.7,4.3,11.7c0,4.4-1.4,8.2-4.1,11.3
				L612,884.3h51.5v-5.9h-37.4l32.7-36.3l1.9-2.2h-0.3c2.4-3.6,3.6-7.8,3.6-12.6C663.9,820.4,661.8,815.1,657.7,811.2z"/>
		</g>
		<g>
			<path d="M721.5,858.6h-8.4v-51.1l-5.9,0.2l-36.4,53l1.8,3.9H707v19.7h6.2v-19.7h8.4V858.6z M679.7,858.7l27.3-39.4v39.4H679.7z"
				/>
		</g>
		<g>
			<polygon points="721.5,893.3 728.1,893.3 763.4,801.1 756.9,801.1 			"/>
		</g>
		<g>
			<polygon points="768.7,807.5 768.7,813.7 808.6,813.8 783.8,884.3 790.4,884.3 817.4,807.4 			"/>
		</g>
	</g>
	<g>
		<path d="M585.3,850.5h-45c-1.8,0-3.3-1.5-3.3-3.3c0-1.8,1.5-3.3,3.3-3.3h45c1.8,0,3.3,1.5,3.3,3.3
			C588.6,849.1,587.2,850.5,585.3,850.5z"/>
	</g>
	<g>
		<path d="M889.1,850.5h-45c-1.8,0-3.3-1.5-3.3-3.3c0-1.8,1.5-3.3,3.3-3.3h45c1.8,0,3.3,1.5,3.3,3.3
			C892.4,849.1,890.9,850.5,889.1,850.5z"/>
	</g>
	<g>
		<path d="M600.3,136.5h-57.8c-1.8,0-3.3-1.5-3.3-3.3s1.5-3.3,3.3-3.3h57.8c1.8,0,3.3,1.5,3.3,3.3S602.1,136.5,600.3,136.5z"/>
	</g>
	<g>
		<g>
			<path d="M647.8,123c-5,0-9.2,1.2-12.5,3.5V106h29.9v-5.3h-35.4l0.1,33.8h4.4l0.4-0.5c3-3.9,7.1-5.8,12.7-5.8
				c4.6,0,8.2,1.3,10.8,4c2.6,2.7,3.9,6.4,3.9,11.1c0,4.9-1.3,8.8-4,11.6c-2.6,2.9-6.3,4.4-11.2,4.4c-8.3,0-12.8-4.3-13.6-13.2
				l-0.1-1.2h-5.5l0.1,1.5c0.6,5.6,2.5,10.1,5.7,13.3c3.5,3.3,8,5,13.5,5c3.1,0,6-0.5,8.5-1.5c2.5-1,4.7-2.4,6.5-4.2
				c1.8-1.8,3.2-4,4.2-6.6c1-2.6,1.4-5.4,1.4-8.6c0-6-1.8-11-5.3-14.8C658.8,124.9,653.9,123,647.8,123z"/>
		</g>
		<g>
			<path d="M710.3,110.7c-3.5-7.8-9.2-11.7-17.1-11.7c-7.8,0-13.5,4-17,11.7c-2.5,5.6-3.7,12.7-3.7,21c0,8.4,1.3,15.5,3.7,21
				c3.5,7.8,9.2,11.7,17,11.7c7.9,0,13.6-3.9,17.1-11.7c2.5-5.6,3.7-12.7,3.7-21.1C714,123.4,712.8,116.3,710.3,110.7z M678.2,131.7
				c0-7.2,0.9-13.3,2.7-18c2.5-6.4,6.5-9.5,12.4-9.5c5.8,0,9.9,3.1,12.4,9.6c1.7,4.5,2.6,10.5,2.6,17.9c0,7.4-0.9,13.5-2.6,18
				c-2.5,6.4-6.6,9.6-12.4,9.6c-5.8,0-9.9-3.1-12.4-9.6C679.1,145,678.2,139,678.2,131.7z"/>
		</g>
		<g>
			<polygon points="701.9,122.5 697.6,119.7 684.2,142 688.5,144.7 			"/>
		</g>
	</g>
	<g>
		<path d="M739.5,161.6c-0.9,0-1.7-0.3-2.4-1c-1.3-1.3-1.3-3.4,0-4.7l50.3-50.3c1.3-1.3,3.4-1.3,4.7,0c1.3,1.3,1.3,3.4,0,4.7
			l-50.3,50.3C741.2,161.3,740.4,161.6,739.5,161.6z"/>
	</g>
	<g>
		<path d="M743,127c-4.2,0-8.1-1.6-11-4.5c-6.1-6.1-6.1-15.9,0-22c5.9-5.9,16.1-5.9,22,0c6.1,6.1,6.1,15.9,0,22
			C751.1,125.4,747.2,127,743,127z M743,102.6c-2.4,0-4.6,0.9-6.3,2.6c-3.5,3.5-3.5,9.1,0,12.6c3.4,3.4,9.2,3.4,12.6,0
			c3.5-3.5,3.5-9.1,0-12.6C747.6,103.5,745.4,102.6,743,102.6z"/>
	</g>
	<g>
		<path d="M786.4,170.4c-4.2,0-8.1-1.6-11-4.6c-6.1-6.1-6.1-15.9,0-22c5.9-5.9,16.1-5.9,22,0c2.9,2.9,4.6,6.8,4.6,11
			c0,4.2-1.6,8.1-4.6,11C794.4,168.8,790.5,170.4,786.4,170.4z M786.4,145.9c-2.4,0-4.6,0.9-6.3,2.6c-3.5,3.5-3.5,9.1,0,12.6
			c3.4,3.4,9.2,3.4,12.6,0c1.7-1.7,2.6-3.9,2.6-6.3c0-2.4-0.9-4.6-2.6-6.3C791,146.9,788.7,145.9,786.4,145.9z"/>
	</g>
	<g>
		<path d="M369.3,484.9H104.9c-1.8,0-3.3-1.5-3.3-3.3V263.4c0-1.8,1.5-3.3,3.3-3.3h264.4c1.8,0,3.3,1.5,3.3,3.3v218.2
			C372.6,483.4,371.1,484.9,369.3,484.9z M108.3,478.2H366V266.7H108.3V478.2z"/>
	</g>
	<g>
		<path d="M394.3,266.7H80c-1.8,0-3.3-1.5-3.3-3.3V195c0-1.8,1.5-3.3,3.3-3.3h314.3c1.8,0,3.3,1.5,3.3,3.3v68.4
			C397.6,265.2,396.1,266.7,394.3,266.7z M83.3,260h307.6v-61.7H83.3V260z"/>
	</g>
	<g>
		<path d="M237.1,484.9c-1.8,0-3.3-1.5-3.3-3.3V195c0-1.8,1.5-3.3,3.3-3.3s3.3,1.5,3.3,3.3v286.6C240.5,483.4,239,484.9,237.1,484.9
			z"/>
	</g>
	<g>
		<path d="M227.9,171.2h-44.6c-26.4,0-47.9-21.5-47.9-47.9c0-26.4,21.5-47.9,47.9-47.9c26.4,0,47.9,21.5,47.9,47.9v44.6
			C231.2,169.7,229.7,171.2,227.9,171.2z M183.3,82c-22.8,0-41.3,18.5-41.3,41.3c0,22.8,18.5,41.3,41.3,41.3h41.3v-41.3
			C224.5,100.5,206,82,183.3,82z"/>
	</g>
	<g>
		<path d="M291,171.2h-44.6c-1.8,0-3.3-1.5-3.3-3.3v-44.6c0-26.4,21.5-47.9,47.9-47.9c26.4,0,47.9,21.5,47.9,47.9
			C338.9,149.7,317.4,171.2,291,171.2z M249.7,164.6H291c22.8,0,41.3-18.5,41.3-41.3c0-22.8-18.5-41.3-41.3-41.3
			c-22.8,0-41.3,18.5-41.3,41.3V164.6z"/>
	</g>
	<g>
		<g>
			<g>
				<rect x="313.1" y="500.5" fill="#FFFFFF" width="156.1" height="33.7"/>
				<path d="M469.2,537.6H313.1c-1.8,0-3.3-1.5-3.3-3.3v-33.7c0-1.8,1.5-3.3,3.3-3.3h156.1c1.8,0,3.3,1.5,3.3,3.3v33.7
					C472.6,536.1,471.1,537.6,469.2,537.6z M316.5,530.9h149.4v-27.1H316.5V530.9z"/>
			</g>
			<g>
				<rect x="313.1" y="339.7" fill="#FFFFFF" width="156.1" height="160.8"/>
				<path d="M469.2,503.8H313.1c-1.8,0-3.3-1.5-3.3-3.3V339.7c0-1.8,1.5-3.3,3.3-3.3h156.1c1.8,0,3.3,1.5,3.3,3.3v160.8
					C472.6,502.3,471.1,503.8,469.2,503.8z M316.5,497.2h149.4V343H316.5V497.2z"/>
			</g>
		</g>
		<g>
			<rect x="350.8" y="392.5" fill="#FFFFFF" width="80.8" height="80.7"/>
			<path d="M431.6,476.6h-80.8c-1.8,0-3.3-1.5-3.3-3.3v-80.7c0-1.8,1.5-3.3,3.3-3.3h80.8c1.8,0,3.3,1.5,3.3,3.3v80.7
				C434.9,475.1,433.4,476.6,431.6,476.6z M354.1,469.9h74.1v-74.1h-74.1V469.9z"/>
		</g>
		<g>
			<path d="M435.5,372.1c-1.8,0-3.3-1.5-3.3-3.3v-42c0-22.6-18.4-41-41-41c-22.6,0-41,18.4-41,41v42c0,1.8-1.5,3.3-3.3,3.3
				s-3.3-1.5-3.3-3.3v-42c0-26.3,21.4-47.7,47.7-47.7c26.3,0,47.7,21.4,47.7,47.7v42C438.8,370.6,437.4,372.1,435.5,372.1z"/>
		</g>
	</g>
	<g>
		<path d="M355.4,798h-90c-1.8,0-3.3-1.5-3.3-3.3V694.4c0-1.8,1.4-3.3,3.2-3.3l0.8,0c7,0,66.9,1.8,69,62.3h20.2
			c1.8,0,3.3,1.5,3.3,3.3v38C358.7,796.6,357.2,798,355.4,798z M268.8,791.4h83.3v-31.3h-20.2c-1.8,0-3.3-1.5-3.3-3.3
			c0-52.5-46.9-58.3-59.8-58.9V791.4z"/>
	</g>
	<g>
		<path d="M245.7,913.6c-63.4,0-121-35-150.3-91.4c-0.5-1-0.5-2.3,0.1-3.3c0.6-1,1.7-1.6,2.8-1.6h253.7V798h-86.6
			c-1.8,0-3.3-1.5-3.3-3.3v-123H98.2c-1.2,0-2.2-0.6-2.8-1.6c-0.6-1-0.6-2.2-0.1-3.3c29.2-56.6,86.9-91.7,150.4-91.7
			c93.3,0,169.2,75.9,169.2,169.2C414.9,837.7,339,913.6,245.7,913.6z M104,824c28.8,51.3,82.6,82.9,141.7,82.9
			c89.6,0,162.6-72.9,162.6-162.6c0-89.6-72.9-162.6-162.6-162.6c-59.2,0-113.1,31.8-141.9,83.3h161.6c1.8,0,3.3,1.5,3.3,3.3v123
			h86.6c1.8,0,3.3,1.5,3.3,3.3v26c0,1.8-1.5,3.3-3.3,3.3H104z"/>
	</g>
	<g>
		<path d="M265.4,798H87.6c-1.5,0-2.7-0.9-3.2-2.3c-5.3-16.6-7.9-33.9-7.9-51.3c0-27.3,6.3-53.3,18.8-77.5c0.6-1.1,1.7-1.8,3-1.8
			h167.2c1.8,0,3.3,1.5,3.3,3.3v126.3C268.8,796.6,267.3,798,265.4,798z M90,791.4h172.1V671.7H100.3
			c-11.4,22.7-17.2,47.1-17.2,72.7C83.1,760.4,85.4,776.2,90,791.4z"/>
	</g>
	<g>
		<path d="M355.4,824h-257c-1.2,0-2.4-0.7-3-1.8c-4.5-8.6-8.2-17.5-11-26.5c-0.3-1-0.1-2.1,0.5-3c0.6-0.9,1.6-1.4,2.7-1.4h267.8
			c1.8,0,3.3,1.5,3.3,3.3v26C358.7,822.6,357.2,824,355.4,824z M100.4,817.4h251.6V798H92.2C94.5,804.6,97.2,811.1,100.4,817.4z"/>
	</g>
	<g>
		<path fill="#FFFFFF" d="M336.4,807.7c0,14.4-11.6,26-26,26c-14.4,0-26-11.6-26-26c0-14.4,11.6-26,26-26
			C324.8,781.7,336.4,793.3,336.4,807.7z"/>
		<path d="M310.4,837c-16.2,0-29.3-13.2-29.3-29.3c0-16.2,13.2-29.3,29.3-29.3c16.2,0,29.3,13.2,29.3,29.3
			C339.7,823.9,326.6,837,310.4,837z M310.4,785c-12.5,0-22.7,10.2-22.7,22.7c0,12.5,10.2,22.7,22.7,22.7
			c12.5,0,22.7-10.2,22.7-22.7C333.1,795.2,322.9,785,310.4,785z"/>
	</g>
	<g>
		<path fill="#FFFFFF" d="M167.6,807.7c0,14.4-11.6,26-26,26c-14.4,0-26-11.6-26-26c0-14.4,11.6-26,26-26
			C156,781.7,167.6,793.3,167.6,807.7z"/>
		<path d="M141.6,837c-16.2,0-29.3-13.2-29.3-29.3c0-16.2,13.2-29.3,29.3-29.3c16.2,0,29.3,13.2,29.3,29.3
			C170.9,823.9,157.8,837,141.6,837z M141.6,785c-12.5,0-22.7,10.2-22.7,22.7c0,12.5,10.2,22.7,22.7,22.7
			c12.5,0,22.7-10.2,22.7-22.7C164.3,795.2,154.1,785,141.6,785z"/>
	</g>
	<g>
		<path d="M300.7,760.1h-35.3c-1.8,0-3.3-1.5-3.3-3.3s1.5-3.3,3.3-3.3h35.3c1.8,0,3.3,1.5,3.3,3.3S302.6,760.1,300.7,760.1z"/>
	</g>
	<g>
		<path d="M172.6,706.4H85c-1.8,0-3.3-1.5-3.3-3.3c0-1.8,1.5-3.3,3.3-3.3h87.6c1.8,0,3.3,1.5,3.3,3.3
			C175.9,704.9,174.4,706.4,172.6,706.4z"/>
	</g>
	<g>
		<path d="M172.6,747.7H79.8c-1.8,0-3.3-1.5-3.3-3.3c0-1.8,1.5-3.3,3.3-3.3h92.8c1.8,0,3.3,1.5,3.3,3.3
			C175.9,746.2,174.4,747.7,172.6,747.7z"/>
	</g>
	<g>
		<path d="M483.7,910.8h-92.5c-1.8,0-3.3-1.5-3.3-3.3c0-1.8,1.5-3.3,3.3-3.3h92.5c1.8,0,3.3,1.5,3.3,3.3
			C487,909.3,485.5,910.8,483.7,910.8z"/>
	</g>
	<g>
		<path d="M483.7,848.2h-63.3c-1.8,0-3.3-1.5-3.3-3.3s1.5-3.3,3.3-3.3h63.3c1.8,0,3.3,1.5,3.3,3.3S485.5,848.2,483.7,848.2z"/>
	</g>
</g>
</svg>
